<svg xmlns="http://www.w3.org/2000/svg" version="1.1" width="300"
     height="300" viewBox="0 0 2000 2000"><g transform="matrix(1,0,0,1,-0.28443113772425477,-0.28443113772459583)">
    <svg viewBox="0 0 334 334" data-background-color="#ffffff" preserveAspectRatio="xMidYMid meet" height="2000"
         width="2000" xmlns="http://www.w3.org/2000/svg"><g id="tight-bounds" transform="matrix(1,0,0,1,0.04749999999998522,0.04750000000001364)"><svg viewBox="0 0 333.90454557049503 333.90454557049503" height="333.90454557049503" width="333.90454557049503"><g><svg></svg></g><g><svg viewBox="0 0 333.90454557049503 333.90454557049503" height="333.90454557049503" width="333.90454557049503"><g><path d="M0 166.952c0-92.205 74.747-166.952 166.952-166.952 92.205 0 166.952 74.747 166.953 166.952 0 92.205-74.747 166.952-166.953 166.953-92.205 0-166.952-74.747-166.952-166.953zM166.952 316.63c82.665 0 149.677-67.013 149.678-149.678 0-82.665-67.013-149.677-149.678-149.677-82.665 0-149.677 67.013-149.677 149.677 0 82.665 67.013 149.677 149.677 149.678z"
                                                                                                                                                                                                                                                                                                                                                                                                                                                                                                                                                                                                                                       fill="#0718c4" stroke="transparent"></path><ellipse rx="160.27418187383762" ry="160.27418187383762" cx="166.95227278524752" cy="166.95227278524752" fill="#0718c4" stroke="transparent" stroke-width="0" fill-opacity="1"></ellipse></g><g transform="matrix(1,0,0,1,109.21108550106158,71.17305217166896)"><svg viewBox="0 0 115.48237456837188 191.55844122715712" height="191.55844122715712" width="115.48237456837188"><g><svg viewBox="0 0 115.48237456837188 191.55844122715712" height="191.55844122715712" width="115.48237456837188"><g><svg viewBox="0 0 115.48237456837188 191.55844122715712" height="191.55844122715712" width="115.48237456837188"><g><svg viewBox="0 0 115.48237456837188 191.55844122715712" height="191.55844122715712" width="115.48237456837188"><g id="textblocktransform"><svg viewBox="0 0 115.48237456837188 191.55844122715712" height="191.55844122715712" width="115.48237456837188" id="textblock"><g><svg viewBox="0 0 115.48237456837188 191.55844122715712" height="191.55844122715712" width="115.48237456837188"><g transform="matrix(1,0,0,1,0,0)"><svg width="115.48237456837188" viewBox="4.199999809265137 -35 21.099998474121094 35" height="191.55844122715712" data-palette-color="#ffffff"><path d="M4.2 0L4.2-35 8.75-35 8.75 0 4.2 0ZM20.25 0L9-18.55 20.25-35 25.3-35 13.95-18.55 25.3 0 20.25 0Z" opacity="1" transform="matrix(1,0,0,1,0,0)" fill="#ffffff" class="wordmark-text-0"
                                                                                                                                                                                                                                                                                                                                                                                                                                                                                                                                                                                                                                                                                                                                                                                                                                                                                                                                                                                                                                                  id="text-0"></path></svg></g></svg></g></svg></g></svg></g><g></g></svg></g></svg></g></svg></g></svg></g><defs></defs></svg><rect width="333.90454557049503" height="333.90454557049503" fill="none" stroke="none" visibility="hidden"></rect></g></svg></g></svg>